<svg fill="none" height="236" viewBox="0 0 236 236" width="236" xmlns="http://www.w3.org/2000/svg" xmlns:xlink="http://www.w3.org/1999/xlink"><pattern id="a" height="1" patternContentUnits="objectBoundingBox" width="1"><image height="1127" preserveAspectRatio="none" transform="scale(.00084175 .00088731)" width="1188"></image></pattern><clipPath id="b"><rect height="236" rx="36" width="236"></rect></clipPath><mask id="c" height="396" maskUnits="userSpaceOnUse" width="632" x="0" y="0"><path d="m631.833.00013367-631.833.00011047.00006907 395.02375586h631.83293093z" fill="#fff"></path></mask><mask id="d" height="403" maskUnits="userSpaceOnUse" width="644" x="-6" y="-4"><path d="m637.47-3.71984-643.10867.00011.00007 402.46273h643.1086z" fill="#fff"></path></mask><g clip-path="url(#b)"><path d="m0 0h236v236h-236z" fill="#354cef"></path><g mask="url(#c)"><g mask="url(#d)"><path d="m-5.74023-3.8833h643.56v402.79h-643.56z" fill="url(#a)"></path></g></g><path d="m79.2812 148.527v-26.246c0-17.497 14.2764-31.4998 31.7098-31.4998h13.57l14.623 9.7938v-44.8016h17.613v124.2536h-45.806c-17.4473 0-31.7098-14.182-31.7098-31.5zm31.7098 14.003h28.193v-40.771l-20.079-13.481h-8.1c-7.754 0-14.0964 6.3-14.0964 14.003v26.246c0 7.703 6.3424 14.003 14.0964 14.003z" fill="#e7e7f0"></path></g></svg>